<?xml version="1.0" encoding="UTF-8" standalone="no"?>
<!-- Created with Inkscape (http://www.inkscape.org/) -->

<svg
   xmlns:dc="http://purl.org/dc/elements/1.1/"
   xmlns:cc="http://creativecommons.org/ns#"
   xmlns:rdf="http://www.w3.org/1999/02/22-rdf-syntax-ns#"
   xmlns:svg="http://www.w3.org/2000/svg"
   xmlns="http://www.w3.org/2000/svg"
   xmlns:sodipodi="http://sodipodi.sourceforge.net/DTD/sodipodi-0.dtd"
   xmlns:inkscape="http://www.inkscape.org/namespaces/inkscape"
   width="320"
   height="480"
   id="svg2"
   version="1.1"
   inkscape:version="0.48.3.1 r9886"
   inkscape:export-filename="background1.png"
   inkscape:export-xdpi="90"
   inkscape:export-ydpi="90"
   sodipodi:docname="background1.svg">
  <defs
     id="defs4" />
  <sodipodi:namedview
     id="base"
     pagecolor="#ffffff"
     bordercolor="#666666"
     borderopacity="1.0"
     inkscape:pageopacity="0.0"
     inkscape:pageshadow="2"
     inkscape:zoom="1.4"
     inkscape:cx="52.317171"
     inkscape:cy="208.63102"
     inkscape:document-units="px"
     inkscape:current-layer="layer1"
     showgrid="false"
     inkscape:window-width="1920"
     inkscape:window-height="1027"
     inkscape:window-x="0"
     inkscape:window-y="27"
     inkscape:window-maximized="1" />
  <metadata
     id="metadata7">
    <rdf:RDF>
      <cc:Work
         rdf:about="">
        <dc:format>image/svg+xml</dc:format>
        <dc:type
           rdf:resource="http://purl.org/dc/dcmitype/StillImage" />
        <dc:title />
      </cc:Work>
    </rdf:RDF>
  </metadata>
  <g
     inkscape:label="Calque 1"
     inkscape:groupmode="layer"
     id="layer1"
     transform="translate(0,-572.36218)">
    <path
       sodipodi:type="star"
       style="fill:#ffe5a7;fill-opacity:1;stroke:#e6c96d;stroke-width:2;stroke-miterlimit:4;stroke-opacity:1;stroke-dasharray:none"
       id="path3004"
       sodipodi:sides="7"
       sodipodi:cx="32.142857"
       sodipodi:cy="65"
       sodipodi:r1="55.714287"
       sodipodi:r2="26.408571"
       sodipodi:arg1="0"
       sodipodi:arg2="0.44879895"
       inkscape:flatsided="false"
       inkscape:rounded="-0.2"
       inkscape:randomized="0"
       d="m 87.857143,65 c 0,-6.78304 -34.864037,17.569558 -31.920986,11.45825 2.943051,-6.111308 5.640795,36.33009 10.943989,32.10093 5.303195,-4.22915 -35.473805,-16.303358 -28.860829,-17.812727 6.612975,-1.509368 -24.887031,27.061587 -18.274056,28.570957 6.612976,1.50937 -9.371074,-37.899514 -4.067879,-33.670358 5.303194,4.229157 -36.674414,-2.584837 -33.731363,3.526471 C -15.11093,95.284831 5.7342854,58.21696 5.7342854,65 c 0,6.78304 -20.8452154,-30.284831 -23.7882664,-24.173523 -2.943051,6.111308 39.034557,-0.702686 33.731363,3.526471 -5.303195,4.229156 10.680855,-35.1797298 4.067879,-33.670361 -6.612975,1.509368 24.887031,30.080328 18.274056,28.57096 C 31.406341,37.744178 72.183341,25.669973 66.880146,21.440817 61.576952,17.21166 58.879208,59.653058 55.936157,53.54175 52.993106,47.430442 87.857143,71.78304 87.857143,65 z"
       transform="matrix(0.15487801,0,0,0.15487801,26.523697,581.22369)" />
    <path
       sodipodi:type="star"
       style="fill:#ffe5a7;fill-opacity:1;stroke:#e6c96d;stroke-width:2;stroke-miterlimit:4;stroke-opacity:1;stroke-dasharray:none"
       id="path3004-05"
       sodipodi:sides="7"
       sodipodi:cx="32.142857"
       sodipodi:cy="65"
       sodipodi:r1="55.714287"
       sodipodi:r2="26.408571"
       sodipodi:arg1="0"
       sodipodi:arg2="0.44879895"
       inkscape:flatsided="false"
       inkscape:rounded="-0.2"
       inkscape:randomized="0"
       d="m 87.857143,65 c 0,-6.78304 -34.864037,17.569558 -31.920986,11.45825 2.943051,-6.111308 5.640795,36.33009 10.943989,32.10093 5.303195,-4.22915 -35.473805,-16.303358 -28.860829,-17.812727 6.612975,-1.509368 -24.887031,27.061587 -18.274056,28.570957 6.612976,1.50937 -9.371074,-37.899514 -4.067879,-33.670358 5.303194,4.229157 -36.674414,-2.584837 -33.731363,3.526471 C -15.11093,95.284831 5.7342854,58.21696 5.7342854,65 c 0,6.78304 -20.8452154,-30.284831 -23.7882664,-24.173523 -2.943051,6.111308 39.034557,-0.702686 33.731363,3.526471 -5.303195,4.229156 10.680855,-35.1797298 4.067879,-33.670361 -6.612975,1.509368 24.887031,30.080328 18.274056,28.57096 C 31.406341,37.744178 72.183341,25.669973 66.880146,21.440817 61.576952,17.21166 58.879208,59.653058 55.936157,53.54175 52.993106,47.430442 87.857143,71.78304 87.857143,65 z"
       transform="matrix(0.15487801,0,0,0.15487801,259.60597,580.86654)" />
    <path
       sodipodi:type="star"
       style="fill:#ffe5a7;fill-opacity:1;stroke:#e6c96d;stroke-width:2;stroke-miterlimit:4;stroke-opacity:1;stroke-dasharray:none"
       id="path3004-7"
       sodipodi:sides="7"
       sodipodi:cx="32.142857"
       sodipodi:cy="65"
       sodipodi:r1="55.714287"
       sodipodi:r2="26.408571"
       sodipodi:arg1="0"
       sodipodi:arg2="0.44879895"
       inkscape:flatsided="false"
       inkscape:rounded="-0.2"
       inkscape:randomized="0"
       d="m 87.857143,65 c 0,-6.78304 -34.864037,17.569558 -31.920986,11.45825 2.943051,-6.111308 5.640795,36.33009 10.943989,32.10093 5.303195,-4.22915 -35.473805,-16.303358 -28.860829,-17.812727 6.612975,-1.509368 -24.887031,27.061587 -18.274056,28.570957 6.612976,1.50937 -9.371074,-37.899514 -4.067879,-33.670358 5.303194,4.229157 -36.674414,-2.584837 -33.731363,3.526471 C -15.11093,95.284831 5.7342854,58.21696 5.7342854,65 c 0,6.78304 -20.8452154,-30.284831 -23.7882664,-24.173523 -2.943051,6.111308 39.034557,-0.702686 33.731363,3.526471 -5.303195,4.229156 10.680855,-35.1797298 4.067879,-33.670361 -6.612975,1.509368 24.887031,30.080328 18.274056,28.57096 C 31.406341,37.744178 72.183341,25.669973 66.880146,21.440817 61.576952,17.21166 58.879208,59.653058 55.936157,53.54175 52.993106,47.430442 87.857143,71.78304 87.857143,65 z"
       transform="matrix(0.15487801,0,0,0.15487801,106.03455,581.58082)" />
    <path
       sodipodi:type="star"
       style="fill:#ffe5a7;fill-opacity:1;stroke:#e6c96d;stroke-width:2;stroke-miterlimit:4;stroke-opacity:1;stroke-dasharray:none"
       id="path3004-13"
       sodipodi:sides="7"
       sodipodi:cx="32.142857"
       sodipodi:cy="65"
       sodipodi:r1="55.714287"
       sodipodi:r2="26.408571"
       sodipodi:arg1="0"
       sodipodi:arg2="0.44879895"
       inkscape:flatsided="false"
       inkscape:rounded="-0.2"
       inkscape:randomized="0"
       d="m 87.857143,65 c 0,-6.78304 -34.864037,17.569558 -31.920986,11.45825 2.943051,-6.111308 5.640795,36.33009 10.943989,32.10093 5.303195,-4.22915 -35.473805,-16.303358 -28.860829,-17.812727 6.612975,-1.509368 -24.887031,27.061587 -18.274056,28.570957 6.612976,1.50937 -9.371074,-37.899514 -4.067879,-33.670358 5.303194,4.229157 -36.674414,-2.584837 -33.731363,3.526471 C -15.11093,95.284831 5.7342854,58.21696 5.7342854,65 c 0,6.78304 -20.8452154,-30.284831 -23.7882664,-24.173523 -2.943051,6.111308 39.034557,-0.702686 33.731363,3.526471 -5.303195,4.229156 10.680855,-35.1797298 4.067879,-33.670361 -6.612975,1.509368 24.887031,30.080328 18.274056,28.57096 C 31.406341,37.744178 72.183341,25.669973 66.880146,21.440817 61.576952,17.21166 58.879208,59.653058 55.936157,53.54175 52.993106,47.430442 87.857143,71.78304 87.857143,65 z"
       transform="matrix(0.15487801,0,0,0.15487801,182.46312,580.86654)" />
    <path
       sodipodi:type="star"
       style="fill:#ffe5a7;fill-opacity:1;stroke:#e6c96d;stroke-width:2;stroke-miterlimit:4;stroke-opacity:1;stroke-dasharray:none"
       id="path3004-05-63"
       sodipodi:sides="7"
       sodipodi:cx="32.142857"
       sodipodi:cy="65"
       sodipodi:r1="55.714287"
       sodipodi:r2="26.408571"
       sodipodi:arg1="0"
       sodipodi:arg2="0.44879895"
       inkscape:flatsided="false"
       inkscape:rounded="-0.2"
       inkscape:randomized="0"
       d="m 87.857143,65 c 0,-6.78304 -34.864037,17.569558 -31.920986,11.45825 2.943051,-6.111308 5.640795,36.33009 10.943989,32.10093 5.303195,-4.22915 -35.473805,-16.303358 -28.860829,-17.812727 6.612975,-1.509368 -24.887031,27.061587 -18.274056,28.570957 6.612976,1.50937 -9.371074,-37.899514 -4.067879,-33.670358 5.303194,4.229157 -36.674414,-2.584837 -33.731363,3.526471 C -15.11093,95.284831 5.7342854,58.21696 5.7342854,65 c 0,6.78304 -20.8452154,-30.284831 -23.7882664,-24.173523 -2.943051,6.111308 39.034557,-0.702686 33.731363,3.526471 -5.303195,4.229156 10.680855,-35.1797298 4.067879,-33.670361 -6.612975,1.509368 24.887031,30.080328 18.274056,28.57096 C 31.406341,37.744178 72.183341,25.669973 66.880146,21.440817 61.576952,17.21166 58.879208,59.653058 55.936157,53.54175 52.993106,47.430442 87.857143,71.78304 87.857143,65 z"
       transform="matrix(0.15487801,0,0,0.15487801,218.1774,634.43797)" />
    <path
       sodipodi:type="star"
       style="fill:#ffe5a7;fill-opacity:1;stroke:#e6c96d;stroke-width:2;stroke-miterlimit:4;stroke-opacity:1;stroke-dasharray:none"
       id="path3004-7-3"
       sodipodi:sides="7"
       sodipodi:cx="32.142857"
       sodipodi:cy="65"
       sodipodi:r1="55.714287"
       sodipodi:r2="26.408571"
       sodipodi:arg1="0"
       sodipodi:arg2="0.44879895"
       inkscape:flatsided="false"
       inkscape:rounded="-0.2"
       inkscape:randomized="0"
       d="m 87.857143,65 c 0,-6.78304 -34.864037,17.569558 -31.920986,11.45825 2.943051,-6.111308 5.640795,36.33009 10.943989,32.10093 5.303195,-4.22915 -35.473805,-16.303358 -28.860829,-17.812727 6.612975,-1.509368 -24.887031,27.061587 -18.274056,28.570957 6.612976,1.50937 -9.371074,-37.899514 -4.067879,-33.670358 5.303194,4.229157 -36.674414,-2.584837 -33.731363,3.526471 C -15.11093,95.284831 5.7342854,58.21696 5.7342854,65 c 0,6.78304 -20.8452154,-30.284831 -23.7882664,-24.173523 -2.943051,6.111308 39.034557,-0.702686 33.731363,3.526471 -5.303195,4.229156 10.680855,-35.1797298 4.067879,-33.670361 -6.612975,1.509368 24.887031,30.080328 18.274056,28.57096 C 31.406341,37.744178 72.183341,25.669973 66.880146,21.440817 61.576952,17.21166 58.879208,59.653058 55.936157,53.54175 52.993106,47.430442 87.857143,71.78304 87.857143,65 z"
       transform="matrix(0.15487801,0,0,0.15487801,64.605981,635.15225)" />
    <path
       sodipodi:type="star"
       style="fill:#ffe5a7;fill-opacity:1;stroke:#e6c96d;stroke-width:2;stroke-miterlimit:4;stroke-opacity:1;stroke-dasharray:none"
       id="path3004-13-4"
       sodipodi:sides="7"
       sodipodi:cx="32.142857"
       sodipodi:cy="65"
       sodipodi:r1="55.714287"
       sodipodi:r2="26.408571"
       sodipodi:arg1="0"
       sodipodi:arg2="0.44879895"
       inkscape:flatsided="false"
       inkscape:rounded="-0.2"
       inkscape:randomized="0"
       d="m 87.857143,65 c 0,-6.78304 -34.864037,17.569558 -31.920986,11.45825 2.943051,-6.111308 5.640795,36.33009 10.943989,32.10093 5.303195,-4.22915 -35.473805,-16.303358 -28.860829,-17.812727 6.612975,-1.509368 -24.887031,27.061587 -18.274056,28.570957 6.612976,1.50937 -9.371074,-37.899514 -4.067879,-33.670358 5.303194,4.229157 -36.674414,-2.584837 -33.731363,3.526471 C -15.11093,95.284831 5.7342854,58.21696 5.7342854,65 c 0,6.78304 -20.8452154,-30.284831 -23.7882664,-24.173523 -2.943051,6.111308 39.034557,-0.702686 33.731363,3.526471 -5.303195,4.229156 10.680855,-35.1797298 4.067879,-33.670361 -6.612975,1.509368 24.887031,30.080328 18.274056,28.57096 C 31.406341,37.744178 72.183341,25.669973 66.880146,21.440817 61.576952,17.21166 58.879208,59.653058 55.936157,53.54175 52.993106,47.430442 87.857143,71.78304 87.857143,65 z"
       transform="matrix(0.15487801,0,0,0.15487801,141.03455,634.43797)" />
    <path
       sodipodi:type="star"
       style="fill:#ffe5a7;fill-opacity:1;stroke:#e6c96d;stroke-width:2;stroke-miterlimit:4;stroke-opacity:1;stroke-dasharray:none"
       id="path3004-05-8-0"
       sodipodi:sides="7"
       sodipodi:cx="32.142857"
       sodipodi:cy="65"
       sodipodi:r1="55.714287"
       sodipodi:r2="26.408571"
       sodipodi:arg1="0"
       sodipodi:arg2="0.44879895"
       inkscape:flatsided="false"
       inkscape:rounded="-0.2"
       inkscape:randomized="0"
       d="m 87.857143,65 c 0,-6.78304 -34.864037,17.569558 -31.920986,11.45825 2.943051,-6.111308 5.640795,36.33009 10.943989,32.10093 5.303195,-4.22915 -35.473805,-16.303358 -28.860829,-17.812727 6.612975,-1.509368 -24.887031,27.061587 -18.274056,28.570957 6.612976,1.50937 -9.371074,-37.899514 -4.067879,-33.670358 5.303194,4.229157 -36.674414,-2.584837 -33.731363,3.526471 C -15.11093,95.284831 5.7342854,58.21696 5.7342854,65 c 0,6.78304 -20.8452154,-30.284831 -23.7882664,-24.173523 -2.943051,6.111308 39.034557,-0.702686 33.731363,3.526471 -5.303195,4.229156 10.680855,-35.1797298 4.067879,-33.670361 -6.612975,1.509368 24.887031,30.080328 18.274056,28.57096 C 31.406341,37.744178 72.183341,25.669973 66.880146,21.440817 61.576952,17.21166 58.879208,59.653058 55.936157,53.54175 52.993106,47.430442 87.857143,71.78304 87.857143,65 z"
       transform="matrix(0.15487801,0,0,0.15487801,291.03455,635.15225)" />
    <path
       sodipodi:type="star"
       style="fill:#ffe5a7;fill-opacity:1;stroke:#e6c96d;stroke-width:2;stroke-miterlimit:4;stroke-opacity:1;stroke-dasharray:none"
       id="path3004-29"
       sodipodi:sides="7"
       sodipodi:cx="32.142857"
       sodipodi:cy="65"
       sodipodi:r1="55.714287"
       sodipodi:r2="26.408571"
       sodipodi:arg1="0"
       sodipodi:arg2="0.44879895"
       inkscape:flatsided="false"
       inkscape:rounded="-0.2"
       inkscape:randomized="0"
       d="m 87.857143,65 c 0,-6.78304 -34.864037,17.569558 -31.920986,11.45825 2.943051,-6.111308 5.640795,36.33009 10.943989,32.10093 5.303195,-4.22915 -35.473805,-16.303358 -28.860829,-17.812727 6.612975,-1.509368 -24.887031,27.061587 -18.274056,28.570957 6.612976,1.50937 -9.371074,-37.899514 -4.067879,-33.670358 5.303194,4.229157 -36.674414,-2.584837 -33.731363,3.526471 C -15.11093,95.284831 5.7342854,58.21696 5.7342854,65 c 0,6.78304 -20.8452154,-30.284831 -23.7882664,-24.173523 -2.943051,6.111308 39.034557,-0.702686 33.731363,3.526471 -5.303195,4.229156 10.680855,-35.1797298 4.067879,-33.670361 -6.612975,1.509368 24.887031,30.080328 18.274056,28.57096 C 31.406341,37.744178 72.183341,25.669973 66.880146,21.440817 61.576952,17.21166 58.879208,59.653058 55.936157,53.54175 52.993106,47.430442 87.857143,71.78304 87.857143,65 z"
       transform="matrix(0.15487801,0,0,0.15487801,103.66656,677.65227)" />
    <path
       sodipodi:type="star"
       style="fill:#ffe5a7;fill-opacity:1;stroke:#e6c96d;stroke-width:2;stroke-miterlimit:4;stroke-opacity:1;stroke-dasharray:none"
       id="path3004-7-6"
       sodipodi:sides="7"
       sodipodi:cx="32.142857"
       sodipodi:cy="65"
       sodipodi:r1="55.714287"
       sodipodi:r2="26.408571"
       sodipodi:arg1="0"
       sodipodi:arg2="0.44879895"
       inkscape:flatsided="false"
       inkscape:rounded="-0.2"
       inkscape:randomized="0"
       d="m 87.857143,65 c 0,-6.78304 -34.864037,17.569558 -31.920986,11.45825 2.943051,-6.111308 5.640795,36.33009 10.943989,32.10093 5.303195,-4.22915 -35.473805,-16.303358 -28.860829,-17.812727 6.612975,-1.509368 -24.887031,27.061587 -18.274056,28.570957 6.612976,1.50937 -9.371074,-37.899514 -4.067879,-33.670358 5.303194,4.229157 -36.674414,-2.584837 -33.731363,3.526471 C -15.11093,95.284831 5.7342854,58.21696 5.7342854,65 c 0,6.78304 -20.8452154,-30.284831 -23.7882664,-24.173523 -2.943051,6.111308 39.034557,-0.702686 33.731363,3.526471 -5.303195,4.229156 10.680855,-35.1797298 4.067879,-33.670361 -6.612975,1.509368 24.887031,30.080328 18.274056,28.57096 C 31.406341,37.744178 72.183341,25.669973 66.880146,21.440817 61.576952,17.21166 58.879208,59.653058 55.936157,53.54175 52.993106,47.430442 87.857143,71.78304 87.857143,65 z"
       transform="matrix(0.15487801,0,0,0.15487801,183.17741,678.0094)" />
    <path
       sodipodi:type="star"
       style="fill:#ffe5a7;fill-opacity:1;stroke:#e6c96d;stroke-width:2;stroke-miterlimit:4;stroke-opacity:1;stroke-dasharray:none"
       id="path3004-13-5"
       sodipodi:sides="7"
       sodipodi:cx="32.142857"
       sodipodi:cy="65"
       sodipodi:r1="55.714287"
       sodipodi:r2="26.408571"
       sodipodi:arg1="0"
       sodipodi:arg2="0.44879895"
       inkscape:flatsided="false"
       inkscape:rounded="-0.2"
       inkscape:randomized="0"
       d="m 87.857143,65 c 0,-6.78304 -34.864037,17.569558 -31.920986,11.45825 2.943051,-6.111308 5.640795,36.33009 10.943989,32.10093 5.303195,-4.22915 -35.473805,-16.303358 -28.860829,-17.812727 6.612975,-1.509368 -24.887031,27.061587 -18.274056,28.570957 6.612976,1.50937 -9.371074,-37.899514 -4.067879,-33.670358 5.303194,4.229157 -36.674414,-2.584837 -33.731363,3.526471 C -15.11093,95.284831 5.7342854,58.21696 5.7342854,65 c 0,6.78304 -20.8452154,-30.284831 -23.7882664,-24.173523 -2.943051,6.111308 39.034557,-0.702686 33.731363,3.526471 -5.303195,4.229156 10.680855,-35.1797298 4.067879,-33.670361 -6.612975,1.509368 24.887031,30.080328 18.274056,28.57096 C 31.406341,37.744178 72.183341,25.669973 66.880146,21.440817 61.576952,17.21166 58.879208,59.653058 55.936157,53.54175 52.993106,47.430442 87.857143,71.78304 87.857143,65 z"
       transform="matrix(0.15487801,0,0,0.15487801,259.60598,677.29512)" />
    <path
       sodipodi:type="star"
       style="fill:#ffe5a7;fill-opacity:1;stroke:#e6c96d;stroke-width:2;stroke-miterlimit:4;stroke-opacity:1;stroke-dasharray:none"
       id="path3004-05-6-40"
       sodipodi:sides="7"
       sodipodi:cx="32.142857"
       sodipodi:cy="65"
       sodipodi:r1="55.714287"
       sodipodi:r2="26.408571"
       sodipodi:arg1="0"
       sodipodi:arg2="0.44879895"
       inkscape:flatsided="false"
       inkscape:rounded="-0.2"
       inkscape:randomized="0"
       d="m 87.857143,65 c 0,-6.78304 -34.864037,17.569558 -31.920986,11.45825 2.943051,-6.111308 5.640795,36.33009 10.943989,32.10093 5.303195,-4.22915 -35.473805,-16.303358 -28.860829,-17.812727 6.612975,-1.509368 -24.887031,27.061587 -18.274056,28.570957 6.612976,1.50937 -9.371074,-37.899514 -4.067879,-33.670358 5.303194,4.229157 -36.674414,-2.584837 -33.731363,3.526471 C -15.11093,95.284831 5.7342854,58.21696 5.7342854,65 c 0,6.78304 -20.8452154,-30.284831 -23.7882664,-24.173523 -2.943051,6.111308 39.034557,-0.702686 33.731363,3.526471 -5.303195,4.229156 10.680855,-35.1797298 4.067879,-33.670361 -6.612975,1.509368 24.887031,30.080328 18.274056,28.57096 C 31.406341,37.744178 72.183341,25.669973 66.880146,21.440817 61.576952,17.21166 58.879208,59.653058 55.936157,53.54175 52.993106,47.430442 87.857143,71.78304 87.857143,65 z"
       transform="matrix(0.15487801,0,0,0.15487801,15.320266,675.15226)" />
    <path
       sodipodi:type="star"
       style="fill:#ffe5a7;fill-opacity:1;stroke:#e6c96d;stroke-width:2;stroke-miterlimit:4;stroke-opacity:1;stroke-dasharray:none"
       id="path3004-4"
       sodipodi:sides="7"
       sodipodi:cx="32.142857"
       sodipodi:cy="65"
       sodipodi:r1="55.714287"
       sodipodi:r2="26.408571"
       sodipodi:arg1="0"
       sodipodi:arg2="0.44879895"
       inkscape:flatsided="false"
       inkscape:rounded="-0.2"
       inkscape:randomized="0"
       d="m 87.857143,65 c 0,-6.78304 -34.864037,17.569558 -31.920986,11.45825 2.943051,-6.111308 5.640795,36.33009 10.943989,32.10093 5.303195,-4.22915 -35.473805,-16.303358 -28.860829,-17.812727 6.612975,-1.509368 -24.887031,27.061587 -18.274056,28.570957 6.612976,1.50937 -9.371074,-37.899514 -4.067879,-33.670358 5.303194,4.229157 -36.674414,-2.584837 -33.731363,3.526471 C -15.11093,95.284831 5.7342854,58.21696 5.7342854,65 c 0,6.78304 -20.8452154,-30.284831 -23.7882664,-24.173523 -2.943051,6.111308 39.034557,-0.702686 33.731363,3.526471 -5.303195,4.229156 10.680855,-35.1797298 4.067879,-33.670361 -6.612975,1.509368 24.887031,30.080328 18.274056,28.57096 C 31.406341,37.744178 72.183341,25.669973 66.880146,21.440817 61.576952,17.21166 58.879208,59.653058 55.936157,53.54175 52.993106,47.430442 87.857143,71.78304 87.857143,65 z"
       transform="matrix(0.15487801,0,0,0.15487801,26.523703,770.50941)" />
    <path
       sodipodi:type="star"
       style="fill:#ffe5a7;fill-opacity:1;stroke:#e6c96d;stroke-width:2;stroke-miterlimit:4;stroke-opacity:1;stroke-dasharray:none"
       id="path3004-05-0"
       sodipodi:sides="7"
       sodipodi:cx="32.142857"
       sodipodi:cy="65"
       sodipodi:r1="55.714287"
       sodipodi:r2="26.408571"
       sodipodi:arg1="0"
       sodipodi:arg2="0.44879895"
       inkscape:flatsided="false"
       inkscape:rounded="-0.2"
       inkscape:randomized="0"
       d="m 87.857143,65 c 0,-6.78304 -34.864037,17.569558 -31.920986,11.45825 2.943051,-6.111308 5.640795,36.33009 10.943989,32.10093 5.303195,-4.22915 -35.473805,-16.303358 -28.860829,-17.812727 6.612975,-1.509368 -24.887031,27.061587 -18.274056,28.570957 6.612976,1.50937 -9.371074,-37.899514 -4.067879,-33.670358 5.303194,4.229157 -36.674414,-2.584837 -33.731363,3.526471 C -15.11093,95.284831 5.7342854,58.21696 5.7342854,65 c 0,6.78304 -20.8452154,-30.284831 -23.7882664,-24.173523 -2.943051,6.111308 39.034557,-0.702686 33.731363,3.526471 -5.303195,4.229156 10.680855,-35.1797298 4.067879,-33.670361 -6.612975,1.509368 24.887031,30.080328 18.274056,28.57096 C 31.406341,37.744178 72.183341,25.669973 66.880146,21.440817 61.576952,17.21166 58.879208,59.653058 55.936157,53.54175 52.993106,47.430442 87.857143,71.78304 87.857143,65 z"
       transform="matrix(0.15487801,0,0,0.15487801,259.60597,770.15226)" />
    <path
       sodipodi:type="star"
       style="fill:#ffe5a7;fill-opacity:1;stroke:#e6c96d;stroke-width:2;stroke-miterlimit:4;stroke-opacity:1;stroke-dasharray:none"
       id="path3004-7-8"
       sodipodi:sides="7"
       sodipodi:cx="32.142857"
       sodipodi:cy="65"
       sodipodi:r1="55.714287"
       sodipodi:r2="26.408571"
       sodipodi:arg1="0"
       sodipodi:arg2="0.44879895"
       inkscape:flatsided="false"
       inkscape:rounded="-0.2"
       inkscape:randomized="0"
       d="m 87.857143,65 c 0,-6.78304 -34.864037,17.569558 -31.920986,11.45825 2.943051,-6.111308 5.640795,36.33009 10.943989,32.10093 5.303195,-4.22915 -35.473805,-16.303358 -28.860829,-17.812727 6.612975,-1.509368 -24.887031,27.061587 -18.274056,28.570957 6.612976,1.50937 -9.371074,-37.899514 -4.067879,-33.670358 5.303194,4.229157 -36.674414,-2.584837 -33.731363,3.526471 C -15.11093,95.284831 5.7342854,58.21696 5.7342854,65 c 0,6.78304 -20.8452154,-30.284831 -23.7882664,-24.173523 -2.943051,6.111308 39.034557,-0.702686 33.731363,3.526471 -5.303195,4.229156 10.680855,-35.1797298 4.067879,-33.670361 -6.612975,1.509368 24.887031,30.080328 18.274056,28.57096 C 31.406341,37.744178 72.183341,25.669973 66.880146,21.440817 61.576952,17.21166 58.879208,59.653058 55.936157,53.54175 52.993106,47.430442 87.857143,71.78304 87.857143,65 z"
       transform="matrix(0.15487801,0,0,0.15487801,106.03455,770.86654)" />
    <path
       sodipodi:type="star"
       style="fill:#ffe5a7;fill-opacity:1;stroke:#e6c96d;stroke-width:2;stroke-miterlimit:4;stroke-opacity:1;stroke-dasharray:none"
       id="path3004-13-0"
       sodipodi:sides="7"
       sodipodi:cx="32.142857"
       sodipodi:cy="65"
       sodipodi:r1="55.714287"
       sodipodi:r2="26.408571"
       sodipodi:arg1="0"
       sodipodi:arg2="0.44879895"
       inkscape:flatsided="false"
       inkscape:rounded="-0.2"
       inkscape:randomized="0"
       d="m 87.857143,65 c 0,-6.78304 -34.864037,17.569558 -31.920986,11.45825 2.943051,-6.111308 5.640795,36.33009 10.943989,32.10093 5.303195,-4.22915 -35.473805,-16.303358 -28.860829,-17.812727 6.612975,-1.509368 -24.887031,27.061587 -18.274056,28.570957 6.612976,1.50937 -9.371074,-37.899514 -4.067879,-33.670358 5.303194,4.229157 -36.674414,-2.584837 -33.731363,3.526471 C -15.11093,95.284831 5.7342854,58.21696 5.7342854,65 c 0,6.78304 -20.8452154,-30.284831 -23.7882664,-24.173523 -2.943051,6.111308 39.034557,-0.702686 33.731363,3.526471 -5.303195,4.229156 10.680855,-35.1797298 4.067879,-33.670361 -6.612975,1.509368 24.887031,30.080328 18.274056,28.57096 C 31.406341,37.744178 72.183341,25.669973 66.880146,21.440817 61.576952,17.21166 58.879208,59.653058 55.936157,53.54175 52.993106,47.430442 87.857143,71.78304 87.857143,65 z"
       transform="matrix(0.15487801,0,0,0.15487801,182.46312,770.15226)" />
    <path
       sodipodi:type="star"
       style="fill:#ffe5a7;fill-opacity:1;stroke:#e6c96d;stroke-width:2;stroke-miterlimit:4;stroke-opacity:1;stroke-dasharray:none"
       id="path3004-8"
       sodipodi:sides="7"
       sodipodi:cx="32.142857"
       sodipodi:cy="65"
       sodipodi:r1="55.714287"
       sodipodi:r2="26.408571"
       sodipodi:arg1="0"
       sodipodi:arg2="0.44879895"
       inkscape:flatsided="false"
       inkscape:rounded="-0.2"
       inkscape:randomized="0"
       d="m 87.857143,65 c 0,-6.78304 -34.864037,17.569558 -31.920986,11.45825 2.943051,-6.111308 5.640795,36.33009 10.943989,32.10093 5.303195,-4.22915 -35.473805,-16.303358 -28.860829,-17.812727 6.612975,-1.509368 -24.887031,27.061587 -18.274056,28.570957 6.612976,1.50937 -9.371074,-37.899514 -4.067879,-33.670358 5.303194,4.229157 -36.674414,-2.584837 -33.731363,3.526471 C -15.11093,95.284831 5.7342854,58.21696 5.7342854,65 c 0,6.78304 -20.8452154,-30.284831 -23.7882664,-24.173523 -2.943051,6.111308 39.034557,-0.702686 33.731363,3.526471 -5.303195,4.229156 10.680855,-35.1797298 4.067879,-33.670361 -6.612975,1.509368 24.887031,30.080328 18.274056,28.57096 C 31.406341,37.744178 72.183341,25.669973 66.880146,21.440817 61.576952,17.21166 58.879208,59.653058 55.936157,53.54175 52.993106,47.430442 87.857143,71.78304 87.857143,65 z"
       transform="matrix(0.15487801,0,0,0.15487801,56.523701,821.93797)" />
    <path
       sodipodi:type="star"
       style="fill:#ffe5a7;fill-opacity:1;stroke:#e6c96d;stroke-width:2;stroke-miterlimit:4;stroke-opacity:1;stroke-dasharray:none"
       id="path3004-05-67"
       sodipodi:sides="7"
       sodipodi:cx="32.142857"
       sodipodi:cy="65"
       sodipodi:r1="55.714287"
       sodipodi:r2="26.408571"
       sodipodi:arg1="0"
       sodipodi:arg2="0.44879895"
       inkscape:flatsided="false"
       inkscape:rounded="-0.2"
       inkscape:randomized="0"
       d="m 87.857143,65 c 0,-6.78304 -34.864037,17.569558 -31.920986,11.45825 2.943051,-6.111308 5.640795,36.33009 10.943989,32.10093 5.303195,-4.22915 -35.473805,-16.303358 -28.860829,-17.812727 6.612975,-1.509368 -24.887031,27.061587 -18.274056,28.570957 6.612976,1.50937 -9.371074,-37.899514 -4.067879,-33.670358 5.303194,4.229157 -36.674414,-2.584837 -33.731363,3.526471 C -15.11093,95.284831 5.7342854,58.21696 5.7342854,65 c 0,6.78304 -20.8452154,-30.284831 -23.7882664,-24.173523 -2.943051,6.111308 39.034557,-0.702686 33.731363,3.526471 -5.303195,4.229156 10.680855,-35.1797298 4.067879,-33.670361 -6.612975,1.509368 24.887031,30.080328 18.274056,28.57096 C 31.406341,37.744178 72.183341,25.669973 66.880146,21.440817 61.576952,17.21166 58.879208,59.653058 55.936157,53.54175 52.993106,47.430442 87.857143,71.78304 87.857143,65 z"
       transform="matrix(0.15487801,0,0,0.15487801,289.60597,821.58082)" />
    <path
       sodipodi:type="star"
       style="fill:#ffe5a7;fill-opacity:1;stroke:#e6c96d;stroke-width:2;stroke-miterlimit:4;stroke-opacity:1;stroke-dasharray:none"
       id="path3004-7-61"
       sodipodi:sides="7"
       sodipodi:cx="32.142857"
       sodipodi:cy="65"
       sodipodi:r1="55.714287"
       sodipodi:r2="26.408571"
       sodipodi:arg1="0"
       sodipodi:arg2="0.44879895"
       inkscape:flatsided="false"
       inkscape:rounded="-0.2"
       inkscape:randomized="0"
       d="m 87.857143,65 c 0,-6.78304 -34.864037,17.569558 -31.920986,11.45825 2.943051,-6.111308 5.640795,36.33009 10.943989,32.10093 5.303195,-4.22915 -35.473805,-16.303358 -28.860829,-17.812727 6.612975,-1.509368 -24.887031,27.061587 -18.274056,28.570957 6.612976,1.50937 -9.371074,-37.899514 -4.067879,-33.670358 5.303194,4.229157 -36.674414,-2.584837 -33.731363,3.526471 C -15.11093,95.284831 5.7342854,58.21696 5.7342854,65 c 0,6.78304 -20.8452154,-30.284831 -23.7882664,-24.173523 -2.943051,6.111308 39.034557,-0.702686 33.731363,3.526471 -5.303195,4.229156 10.680855,-35.1797298 4.067879,-33.670361 -6.612975,1.509368 24.887031,30.080328 18.274056,28.57096 C 31.406341,37.744178 72.183341,25.669973 66.880146,21.440817 61.576952,17.21166 58.879208,59.653058 55.936157,53.54175 52.993106,47.430442 87.857143,71.78304 87.857143,65 z"
       transform="matrix(0.15487801,0,0,0.15487801,136.03455,822.2951)" />
    <path
       sodipodi:type="star"
       style="fill:#ffe5a7;fill-opacity:1;stroke:#e6c96d;stroke-width:2;stroke-miterlimit:4;stroke-opacity:1;stroke-dasharray:none"
       id="path3004-13-2"
       sodipodi:sides="7"
       sodipodi:cx="32.142857"
       sodipodi:cy="65"
       sodipodi:r1="55.714287"
       sodipodi:r2="26.408571"
       sodipodi:arg1="0"
       sodipodi:arg2="0.44879895"
       inkscape:flatsided="false"
       inkscape:rounded="-0.2"
       inkscape:randomized="0"
       d="m 87.857143,65 c 0,-6.78304 -34.864037,17.569558 -31.920986,11.45825 2.943051,-6.111308 5.640795,36.33009 10.943989,32.10093 5.303195,-4.22915 -35.473805,-16.303358 -28.860829,-17.812727 6.612975,-1.509368 -24.887031,27.061587 -18.274056,28.570957 6.612976,1.50937 -9.371074,-37.899514 -4.067879,-33.670358 5.303194,4.229157 -36.674414,-2.584837 -33.731363,3.526471 C -15.11093,95.284831 5.7342854,58.21696 5.7342854,65 c 0,6.78304 -20.8452154,-30.284831 -23.7882664,-24.173523 -2.943051,6.111308 39.034557,-0.702686 33.731363,3.526471 -5.303195,4.229156 10.680855,-35.1797298 4.067879,-33.670361 -6.612975,1.509368 24.887031,30.080328 18.274056,28.57096 C 31.406341,37.744178 72.183341,25.669973 66.880146,21.440817 61.576952,17.21166 58.879208,59.653058 55.936157,53.54175 52.993106,47.430442 87.857143,71.78304 87.857143,65 z"
       transform="matrix(0.15487801,0,0,0.15487801,212.46312,821.58082)" />
    <path
       sodipodi:type="star"
       style="fill:#ffe5a7;fill-opacity:1;stroke:#e6c96d;stroke-width:2;stroke-miterlimit:4;stroke-opacity:1;stroke-dasharray:none"
       id="path3004-3"
       sodipodi:sides="7"
       sodipodi:cx="32.142857"
       sodipodi:cy="65"
       sodipodi:r1="55.714287"
       sodipodi:r2="26.408571"
       sodipodi:arg1="0"
       sodipodi:arg2="0.44879895"
       inkscape:flatsided="false"
       inkscape:rounded="-0.2"
       inkscape:randomized="0"
       d="m 87.857143,65 c 0,-6.78304 -34.864037,17.569558 -31.920986,11.45825 2.943051,-6.111308 5.640795,36.33009 10.943989,32.10093 5.303195,-4.22915 -35.473805,-16.303358 -28.860829,-17.812727 6.612975,-1.509368 -24.887031,27.061587 -18.274056,28.570957 6.612976,1.50937 -9.371074,-37.899514 -4.067879,-33.670358 5.303194,4.229157 -36.674414,-2.584837 -33.731363,3.526471 C -15.11093,95.284831 5.7342854,58.21696 5.7342854,65 c 0,6.78304 -20.8452154,-30.284831 -23.7882664,-24.173523 -2.943051,6.111308 39.034557,-0.702686 33.731363,3.526471 -5.303195,4.229156 10.680855,-35.1797298 4.067879,-33.670361 -6.612975,1.509368 24.887031,30.080328 18.274056,28.57096 C 31.406341,37.744178 72.183341,25.669973 66.880146,21.440817 61.576952,17.21166 58.879208,59.653058 55.936157,53.54175 52.993106,47.430442 87.857143,71.78304 87.857143,65 z"
       transform="matrix(0.15487801,0,0,0.15487801,20.09513,873.36657)" />
    <path
       sodipodi:type="star"
       style="fill:#ffe5a7;fill-opacity:1;stroke:#e6c96d;stroke-width:2;stroke-miterlimit:4;stroke-opacity:1;stroke-dasharray:none"
       id="path3004-05-3"
       sodipodi:sides="7"
       sodipodi:cx="32.142857"
       sodipodi:cy="65"
       sodipodi:r1="55.714287"
       sodipodi:r2="26.408571"
       sodipodi:arg1="0"
       sodipodi:arg2="0.44879895"
       inkscape:flatsided="false"
       inkscape:rounded="-0.2"
       inkscape:randomized="0"
       d="m 87.857143,65 c 0,-6.78304 -34.864037,17.569558 -31.920986,11.45825 2.943051,-6.111308 5.640795,36.33009 10.943989,32.10093 5.303195,-4.22915 -35.473805,-16.303358 -28.860829,-17.812727 6.612975,-1.509368 -24.887031,27.061587 -18.274056,28.570957 6.612976,1.50937 -9.371074,-37.899514 -4.067879,-33.670358 5.303194,4.229157 -36.674414,-2.584837 -33.731363,3.526471 C -15.11093,95.284831 5.7342854,58.21696 5.7342854,65 c 0,6.78304 -20.8452154,-30.284831 -23.7882664,-24.173523 -2.943051,6.111308 39.034557,-0.702686 33.731363,3.526471 -5.303195,4.229156 10.680855,-35.1797298 4.067879,-33.670361 -6.612975,1.509368 24.887031,30.080328 18.274056,28.57096 C 31.406341,37.744178 72.183341,25.669973 66.880146,21.440817 61.576952,17.21166 58.879208,59.653058 55.936157,53.54175 52.993106,47.430442 87.857143,71.78304 87.857143,65 z"
       transform="matrix(0.15487801,0,0,0.15487801,253.1774,873.00937)" />
    <path
       sodipodi:type="star"
       style="fill:#ffe5a7;fill-opacity:1;stroke:#e6c96d;stroke-width:2;stroke-miterlimit:4;stroke-opacity:1;stroke-dasharray:none"
       id="path3004-7-1"
       sodipodi:sides="7"
       sodipodi:cx="32.142857"
       sodipodi:cy="65"
       sodipodi:r1="55.714287"
       sodipodi:r2="26.408571"
       sodipodi:arg1="0"
       sodipodi:arg2="0.44879895"
       inkscape:flatsided="false"
       inkscape:rounded="-0.2"
       inkscape:randomized="0"
       d="m 87.857143,65 c 0,-6.78304 -34.864037,17.569558 -31.920986,11.45825 2.943051,-6.111308 5.640795,36.33009 10.943989,32.10093 5.303195,-4.22915 -35.473805,-16.303358 -28.860829,-17.812727 6.612975,-1.509368 -24.887031,27.061587 -18.274056,28.570957 6.612976,1.50937 -9.371074,-37.899514 -4.067879,-33.670358 5.303194,4.229157 -36.674414,-2.584837 -33.731363,3.526471 C -15.11093,95.284831 5.7342854,58.21696 5.7342854,65 c 0,6.78304 -20.8452154,-30.284831 -23.7882664,-24.173523 -2.943051,6.111308 39.034557,-0.702686 33.731363,3.526471 -5.303195,4.229156 10.680855,-35.1797298 4.067879,-33.670361 -6.612975,1.509368 24.887031,30.080328 18.274056,28.57096 C 31.406341,37.744178 72.183341,25.669973 66.880146,21.440817 61.576952,17.21166 58.879208,59.653058 55.936157,53.54175 52.993106,47.430442 87.857143,71.78304 87.857143,65 z"
       transform="matrix(0.15487801,0,0,0.15487801,99.60598,873.72367)" />
    <path
       sodipodi:type="star"
       style="fill:#ffe5a7;fill-opacity:1;stroke:#e6c96d;stroke-width:2;stroke-miterlimit:4;stroke-opacity:1;stroke-dasharray:none"
       id="path3004-13-6"
       sodipodi:sides="7"
       sodipodi:cx="32.142857"
       sodipodi:cy="65"
       sodipodi:r1="55.714287"
       sodipodi:r2="26.408571"
       sodipodi:arg1="0"
       sodipodi:arg2="0.44879895"
       inkscape:flatsided="false"
       inkscape:rounded="-0.2"
       inkscape:randomized="0"
       d="m 87.857143,65 c 0,-6.78304 -34.864037,17.569558 -31.920986,11.45825 2.943051,-6.111308 5.640795,36.33009 10.943989,32.10093 5.303195,-4.22915 -35.473805,-16.303358 -28.860829,-17.812727 6.612975,-1.509368 -24.887031,27.061587 -18.274056,28.570957 6.612976,1.50937 -9.371074,-37.899514 -4.067879,-33.670358 5.303194,4.229157 -36.674414,-2.584837 -33.731363,3.526471 C -15.11093,95.284831 5.7342854,58.21696 5.7342854,65 c 0,6.78304 -20.8452154,-30.284831 -23.7882664,-24.173523 -2.943051,6.111308 39.034557,-0.702686 33.731363,3.526471 -5.303195,4.229156 10.680855,-35.1797298 4.067879,-33.670361 -6.612975,1.509368 24.887031,30.080328 18.274056,28.57096 C 31.406341,37.744178 72.183341,25.669973 66.880146,21.440817 61.576952,17.21166 58.879208,59.653058 55.936157,53.54175 52.993106,47.430442 87.857143,71.78304 87.857143,65 z"
       transform="matrix(0.15487801,0,0,0.15487801,176.03455,873.00937)" />
    <path
       sodipodi:type="star"
       style="fill:#ffe5a7;fill-opacity:1;stroke:#e6c96d;stroke-width:2;stroke-miterlimit:4;stroke-opacity:1;stroke-dasharray:none"
       id="path3004-297"
       sodipodi:sides="7"
       sodipodi:cx="32.142857"
       sodipodi:cy="65"
       sodipodi:r1="55.714287"
       sodipodi:r2="26.408571"
       sodipodi:arg1="0"
       sodipodi:arg2="0.44879895"
       inkscape:flatsided="false"
       inkscape:rounded="-0.2"
       inkscape:randomized="0"
       d="m 87.857143,65 c 0,-6.78304 -34.864037,17.569558 -31.920986,11.45825 2.943051,-6.111308 5.640795,36.33009 10.943989,32.10093 5.303195,-4.22915 -35.473805,-16.303358 -28.860829,-17.812727 6.612975,-1.509368 -24.887031,27.061587 -18.274056,28.570957 6.612976,1.50937 -9.371074,-37.899514 -4.067879,-33.670358 5.303194,4.229157 -36.674414,-2.584837 -33.731363,3.526471 C -15.11093,95.284831 5.7342854,58.21696 5.7342854,65 c 0,6.78304 -20.8452154,-30.284831 -23.7882664,-24.173523 -2.943051,6.111308 39.034557,-0.702686 33.731363,3.526471 -5.303195,4.229156 10.680855,-35.1797298 4.067879,-33.670361 -6.612975,1.509368 24.887031,30.080328 18.274056,28.57096 C 31.406341,37.744178 72.183341,25.669973 66.880146,21.440817 61.576952,17.21166 58.879208,59.653058 55.936157,53.54175 52.993106,47.430442 87.857143,71.78304 87.857143,65 z"
       transform="matrix(0.15487801,0,0,0.15487801,62.952271,724.79512)" />
    <path
       sodipodi:type="star"
       style="fill:#ffe5a7;fill-opacity:1;stroke:#e6c96d;stroke-width:2;stroke-miterlimit:4;stroke-opacity:1;stroke-dasharray:none"
       id="path3004-05-5"
       sodipodi:sides="7"
       sodipodi:cx="32.142857"
       sodipodi:cy="65"
       sodipodi:r1="55.714287"
       sodipodi:r2="26.408571"
       sodipodi:arg1="0"
       sodipodi:arg2="0.44879895"
       inkscape:flatsided="false"
       inkscape:rounded="-0.2"
       inkscape:randomized="0"
       d="m 87.857143,65 c 0,-6.78304 -34.864037,17.569558 -31.920986,11.45825 2.943051,-6.111308 5.640795,36.33009 10.943989,32.10093 5.303195,-4.22915 -35.473805,-16.303358 -28.860829,-17.812727 6.612975,-1.509368 -24.887031,27.061587 -18.274056,28.570957 6.612976,1.50937 -9.371074,-37.899514 -4.067879,-33.670358 5.303194,4.229157 -36.674414,-2.584837 -33.731363,3.526471 C -15.11093,95.284831 5.7342854,58.21696 5.7342854,65 c 0,6.78304 -20.8452154,-30.284831 -23.7882664,-24.173523 -2.943051,6.111308 39.034557,-0.702686 33.731363,3.526471 -5.303195,4.229156 10.680855,-35.1797298 4.067879,-33.670361 -6.612975,1.509368 24.887031,30.080328 18.274056,28.57096 C 31.406341,37.744178 72.183341,25.669973 66.880146,21.440817 61.576952,17.21166 58.879208,59.653058 55.936157,53.54175 52.993106,47.430442 87.857143,71.78304 87.857143,65 z"
       transform="matrix(0.15487801,0,0,0.15487801,296.03454,724.43797)" />
    <path
       sodipodi:type="star"
       style="fill:#ffe5a7;fill-opacity:1;stroke:#e6c96d;stroke-width:2;stroke-miterlimit:4;stroke-opacity:1;stroke-dasharray:none"
       id="path3004-7-9"
       sodipodi:sides="7"
       sodipodi:cx="32.142857"
       sodipodi:cy="65"
       sodipodi:r1="55.714287"
       sodipodi:r2="26.408571"
       sodipodi:arg1="0"
       sodipodi:arg2="0.44879895"
       inkscape:flatsided="false"
       inkscape:rounded="-0.2"
       inkscape:randomized="0"
       d="m 87.857143,65 c 0,-6.78304 -34.864037,17.569558 -31.920986,11.45825 2.943051,-6.111308 5.640795,36.33009 10.943989,32.10093 5.303195,-4.22915 -35.473805,-16.303358 -28.860829,-17.812727 6.612975,-1.509368 -24.887031,27.061587 -18.274056,28.570957 6.612976,1.50937 -9.371074,-37.899514 -4.067879,-33.670358 5.303194,4.229157 -36.674414,-2.584837 -33.731363,3.526471 C -15.11093,95.284831 5.7342854,58.21696 5.7342854,65 c 0,6.78304 -20.8452154,-30.284831 -23.7882664,-24.173523 -2.943051,6.111308 39.034557,-0.702686 33.731363,3.526471 -5.303195,4.229156 10.680855,-35.1797298 4.067879,-33.670361 -6.612975,1.509368 24.887031,30.080328 18.274056,28.57096 C 31.406341,37.744178 72.183341,25.669973 66.880146,21.440817 61.576952,17.21166 58.879208,59.653058 55.936157,53.54175 52.993106,47.430442 87.857143,71.78304 87.857143,65 z"
       transform="matrix(0.15487801,0,0,0.15487801,142.46312,725.15225)" />
    <path
       sodipodi:type="star"
       style="fill:#ffe5a7;fill-opacity:1;stroke:#e6c96d;stroke-width:2;stroke-miterlimit:4;stroke-opacity:1;stroke-dasharray:none"
       id="path3004-13-7"
       sodipodi:sides="7"
       sodipodi:cx="32.142857"
       sodipodi:cy="65"
       sodipodi:r1="55.714287"
       sodipodi:r2="26.408571"
       sodipodi:arg1="0"
       sodipodi:arg2="0.44879895"
       inkscape:flatsided="false"
       inkscape:rounded="-0.2"
       inkscape:randomized="0"
       d="m 87.857143,65 c 0,-6.78304 -34.864037,17.569558 -31.920986,11.45825 2.943051,-6.111308 5.640795,36.33009 10.943989,32.10093 5.303195,-4.22915 -35.473805,-16.303358 -28.860829,-17.812727 6.612975,-1.509368 -24.887031,27.061587 -18.274056,28.570957 6.612976,1.50937 -9.371074,-37.899514 -4.067879,-33.670358 5.303194,4.229157 -36.674414,-2.584837 -33.731363,3.526471 C -15.11093,95.284831 5.7342854,58.21696 5.7342854,65 c 0,6.78304 -20.8452154,-30.284831 -23.7882664,-24.173523 -2.943051,6.111308 39.034557,-0.702686 33.731363,3.526471 -5.303195,4.229156 10.680855,-35.1797298 4.067879,-33.670361 -6.612975,1.509368 24.887031,30.080328 18.274056,28.57096 C 31.406341,37.744178 72.183341,25.669973 66.880146,21.440817 61.576952,17.21166 58.879208,59.653058 55.936157,53.54175 52.993106,47.430442 87.857143,71.78304 87.857143,65 z"
       transform="matrix(0.15487801,0,0,0.15487801,218.89169,724.43797)" />
    <path
       sodipodi:type="star"
       style="fill:#ffe5a7;fill-opacity:1;stroke:#e6c96d;stroke-width:2;stroke-miterlimit:4;stroke-opacity:1;stroke-dasharray:none"
       id="path3004-3-1"
       sodipodi:sides="7"
       sodipodi:cx="32.142857"
       sodipodi:cy="65"
       sodipodi:r1="55.714287"
       sodipodi:r2="26.408571"
       sodipodi:arg1="0"
       sodipodi:arg2="0.44879895"
       inkscape:flatsided="false"
       inkscape:rounded="-0.2"
       inkscape:randomized="0"
       d="m 87.857143,65 c 0,-6.78304 -34.864037,17.569558 -31.920986,11.45825 2.943051,-6.111308 5.640795,36.33009 10.943989,32.10093 5.303195,-4.22915 -35.473805,-16.303358 -28.860829,-17.812727 6.612975,-1.509368 -24.887031,27.061587 -18.274056,28.570957 6.612976,1.50937 -9.371074,-37.899514 -4.067879,-33.670358 5.303194,4.229157 -36.674414,-2.584837 -33.731363,3.526471 C -15.11093,95.284831 5.7342854,58.21696 5.7342854,65 c 0,6.78304 -20.8452154,-30.284831 -23.7882664,-24.173523 -2.943051,6.111308 39.034557,-0.702686 33.731363,3.526471 -5.303195,4.229156 10.680855,-35.1797298 4.067879,-33.670361 -6.612975,1.509368 24.887031,30.080328 18.274056,28.57096 C 31.406341,37.744178 72.183341,25.669973 66.880146,21.440817 61.576952,17.21166 58.879208,59.653058 55.936157,53.54175 52.993106,47.430442 87.857143,71.78304 87.857143,65 z"
       transform="matrix(0.15487801,0,0,0.15487801,99.380846,980.50943)" />
    <path
       sodipodi:type="star"
       style="fill:#ffe5a7;fill-opacity:1;stroke:#e6c96d;stroke-width:2;stroke-miterlimit:4;stroke-opacity:1;stroke-dasharray:none"
       id="path3004-7-1-6"
       sodipodi:sides="7"
       sodipodi:cx="32.142857"
       sodipodi:cy="65"
       sodipodi:r1="55.714287"
       sodipodi:r2="26.408571"
       sodipodi:arg1="0"
       sodipodi:arg2="0.44879895"
       inkscape:flatsided="false"
       inkscape:rounded="-0.2"
       inkscape:randomized="0"
       d="m 87.857143,65 c 0,-6.78304 -34.864037,17.569558 -31.920986,11.45825 2.943051,-6.111308 5.640795,36.33009 10.943989,32.10093 5.303195,-4.22915 -35.473805,-16.303358 -28.860829,-17.812727 6.612975,-1.509368 -24.887031,27.061587 -18.274056,28.570957 6.612976,1.50937 -9.371074,-37.899514 -4.067879,-33.670358 5.303194,4.229157 -36.674414,-2.584837 -33.731363,3.526471 C -15.11093,95.284831 5.7342854,58.21696 5.7342854,65 c 0,6.78304 -20.8452154,-30.284831 -23.7882664,-24.173523 -2.943051,6.111308 39.034557,-0.702686 33.731363,3.526471 -5.303195,4.229156 10.680855,-35.1797298 4.067879,-33.670361 -6.612975,1.509368 24.887031,30.080328 18.274056,28.57096 C 31.406341,37.744178 72.183341,25.669973 66.880146,21.440817 61.576952,17.21166 58.879208,59.653058 55.936157,53.54175 52.993106,47.430442 87.857143,71.78304 87.857143,65 z"
       transform="matrix(0.15487801,0,0,0.15487801,178.8917,980.86653)" />
    <path
       sodipodi:type="star"
       style="fill:#ffe5a7;fill-opacity:1;stroke:#e6c96d;stroke-width:2;stroke-miterlimit:4;stroke-opacity:1;stroke-dasharray:none"
       id="path3004-13-6-2"
       sodipodi:sides="7"
       sodipodi:cx="32.142857"
       sodipodi:cy="65"
       sodipodi:r1="55.714287"
       sodipodi:r2="26.408571"
       sodipodi:arg1="0"
       sodipodi:arg2="0.44879895"
       inkscape:flatsided="false"
       inkscape:rounded="-0.2"
       inkscape:randomized="0"
       d="m 87.857143,65 c 0,-6.78304 -34.864037,17.569558 -31.920986,11.45825 2.943051,-6.111308 5.640795,36.33009 10.943989,32.10093 5.303195,-4.22915 -35.473805,-16.303358 -28.860829,-17.812727 6.612975,-1.509368 -24.887031,27.061587 -18.274056,28.570957 6.612976,1.50937 -9.371074,-37.899514 -4.067879,-33.670358 5.303194,4.229157 -36.674414,-2.584837 -33.731363,3.526471 C -15.11093,95.284831 5.7342854,58.21696 5.7342854,65 c 0,6.78304 -20.8452154,-30.284831 -23.7882664,-24.173523 -2.943051,6.111308 39.034557,-0.702686 33.731363,3.526471 -5.303195,4.229156 10.680855,-35.1797298 4.067879,-33.670361 -6.612975,1.509368 24.887031,30.080328 18.274056,28.57096 C 31.406341,37.744178 72.183341,25.669973 66.880146,21.440817 61.576952,17.21166 58.879208,59.653058 55.936157,53.54175 52.993106,47.430442 87.857143,71.78304 87.857143,65 z"
       transform="matrix(0.15487801,0,0,0.15487801,255.32027,980.15223)" />
    <path
       sodipodi:type="star"
       style="fill:#ffe5a7;fill-opacity:1;stroke:#e6c96d;stroke-width:2;stroke-miterlimit:4;stroke-opacity:1;stroke-dasharray:none"
       id="path3004-05-6-6-9"
       sodipodi:sides="7"
       sodipodi:cx="32.142857"
       sodipodi:cy="65"
       sodipodi:r1="55.714287"
       sodipodi:r2="26.408571"
       sodipodi:arg1="0"
       sodipodi:arg2="0.44879895"
       inkscape:flatsided="false"
       inkscape:rounded="-0.2"
       inkscape:randomized="0"
       d="m 87.857143,65 c 0,-6.78304 -34.864037,17.569558 -31.920986,11.45825 2.943051,-6.111308 5.640795,36.33009 10.943989,32.10093 5.303195,-4.22915 -35.473805,-16.303358 -28.860829,-17.812727 6.612975,-1.509368 -24.887031,27.061587 -18.274056,28.570957 6.612976,1.50937 -9.371074,-37.899514 -4.067879,-33.670358 5.303194,4.229157 -36.674414,-2.584837 -33.731363,3.526471 C -15.11093,95.284831 5.7342854,58.21696 5.7342854,65 c 0,6.78304 -20.8452154,-30.284831 -23.7882664,-24.173523 -2.943051,6.111308 39.034557,-0.702686 33.731363,3.526471 -5.303195,4.229156 10.680855,-35.1797298 4.067879,-33.670361 -6.612975,1.509368 24.887031,30.080328 18.274056,28.57096 C 31.406341,37.744178 72.183341,25.669973 66.880146,21.440817 61.576952,17.21166 58.879208,59.653058 55.936157,53.54175 52.993106,47.430442 87.857143,71.78304 87.857143,65 z"
       transform="matrix(0.15487801,0,0,0.15487801,11.034543,978.00943)" />
    <path
       sodipodi:type="star"
       style="fill:#ffe5a7;fill-opacity:1;stroke:#e6c96d;stroke-width:2;stroke-miterlimit:4;stroke-opacity:1;stroke-dasharray:none"
       id="path3004-3-8"
       sodipodi:sides="7"
       sodipodi:cx="32.142857"
       sodipodi:cy="65"
       sodipodi:r1="55.714287"
       sodipodi:r2="26.408571"
       sodipodi:arg1="0"
       sodipodi:arg2="0.44879895"
       inkscape:flatsided="false"
       inkscape:rounded="-0.2"
       inkscape:randomized="0"
       d="m 87.857143,65 c 0,-6.78304 -34.864037,17.569558 -31.920986,11.45825 2.943051,-6.111308 5.640795,36.33009 10.943989,32.10093 5.303195,-4.22915 -35.473805,-16.303358 -28.860829,-17.812727 6.612975,-1.509368 -24.887031,27.061587 -18.274056,28.570957 6.612976,1.50937 -9.371074,-37.899514 -4.067879,-33.670358 5.303194,4.229157 -36.674414,-2.584837 -33.731363,3.526471 C -15.11093,95.284831 5.7342854,58.21696 5.7342854,65 c 0,6.78304 -20.8452154,-30.284831 -23.7882664,-24.173523 -2.943051,6.111308 39.034557,-0.702686 33.731363,3.526471 -5.303195,4.229156 10.680855,-35.1797298 4.067879,-33.670361 -6.612975,1.509368 24.887031,30.080328 18.274056,28.57096 C 31.406341,37.744178 72.183341,25.669973 66.880146,21.440817 61.576952,17.21166 58.879208,59.653058 55.936157,53.54175 52.993106,47.430442 87.857143,71.78304 87.857143,65 z"
       transform="matrix(0.15487801,0,0,0.15487801,65.09513,1021.2237)" />
    <path
       sodipodi:type="star"
       style="fill:#ffe5a7;fill-opacity:1;stroke:#e6c96d;stroke-width:2;stroke-miterlimit:4;stroke-opacity:1;stroke-dasharray:none"
       id="path3004-05-3-59"
       sodipodi:sides="7"
       sodipodi:cx="32.142857"
       sodipodi:cy="65"
       sodipodi:r1="55.714287"
       sodipodi:r2="26.408571"
       sodipodi:arg1="0"
       sodipodi:arg2="0.44879895"
       inkscape:flatsided="false"
       inkscape:rounded="-0.2"
       inkscape:randomized="0"
       d="m 87.857143,65 c 0,-6.78304 -34.864037,17.569558 -31.920986,11.45825 2.943051,-6.111308 5.640795,36.33009 10.943989,32.10093 5.303195,-4.22915 -35.473805,-16.303358 -28.860829,-17.812727 6.612975,-1.509368 -24.887031,27.061587 -18.274056,28.570957 6.612976,1.50937 -9.371074,-37.899514 -4.067879,-33.670358 5.303194,4.229157 -36.674414,-2.584837 -33.731363,3.526471 C -15.11093,95.284831 5.7342854,58.21696 5.7342854,65 c 0,6.78304 -20.8452154,-30.284831 -23.7882664,-24.173523 -2.943051,6.111308 39.034557,-0.702686 33.731363,3.526471 -5.303195,4.229156 10.680855,-35.1797298 4.067879,-33.670361 -6.612975,1.509368 24.887031,30.080328 18.274056,28.57096 C 31.406341,37.744178 72.183341,25.669973 66.880146,21.440817 61.576952,17.21166 58.879208,59.653058 55.936157,53.54175 52.993106,47.430442 87.857143,71.78304 87.857143,65 z"
       transform="matrix(0.15487801,0,0,0.15487801,298.1774,1020.8665)" />
    <path
       sodipodi:type="star"
       style="fill:#ffe5a7;fill-opacity:1;stroke:#e6c96d;stroke-width:2;stroke-miterlimit:4;stroke-opacity:1;stroke-dasharray:none"
       id="path3004-7-1-4"
       sodipodi:sides="7"
       sodipodi:cx="32.142857"
       sodipodi:cy="65"
       sodipodi:r1="55.714287"
       sodipodi:r2="26.408571"
       sodipodi:arg1="0"
       sodipodi:arg2="0.44879895"
       inkscape:flatsided="false"
       inkscape:rounded="-0.2"
       inkscape:randomized="0"
       d="m 87.857143,65 c 0,-6.78304 -34.864037,17.569558 -31.920986,11.45825 2.943051,-6.111308 5.640795,36.33009 10.943989,32.10093 5.303195,-4.22915 -35.473805,-16.303358 -28.860829,-17.812727 6.612975,-1.509368 -24.887031,27.061587 -18.274056,28.570957 6.612976,1.50937 -9.371074,-37.899514 -4.067879,-33.670358 5.303194,4.229157 -36.674414,-2.584837 -33.731363,3.526471 C -15.11093,95.284831 5.7342854,58.21696 5.7342854,65 c 0,6.78304 -20.8452154,-30.284831 -23.7882664,-24.173523 -2.943051,6.111308 39.034557,-0.702686 33.731363,3.526471 -5.303195,4.229156 10.680855,-35.1797298 4.067879,-33.670361 -6.612975,1.509368 24.887031,30.080328 18.274056,28.57096 C 31.406341,37.744178 72.183341,25.669973 66.880146,21.440817 61.576952,17.21166 58.879208,59.653058 55.936157,53.54175 52.993106,47.430442 87.857143,71.78304 87.857143,65 z"
       transform="matrix(0.15487801,0,0,0.15487801,144.60598,1021.5808)" />
    <path
       sodipodi:type="star"
       style="fill:#ffe5a7;fill-opacity:1;stroke:#e6c96d;stroke-width:2;stroke-miterlimit:4;stroke-opacity:1;stroke-dasharray:none"
       id="path3004-13-6-9"
       sodipodi:sides="7"
       sodipodi:cx="32.142857"
       sodipodi:cy="65"
       sodipodi:r1="55.714287"
       sodipodi:r2="26.408571"
       sodipodi:arg1="0"
       sodipodi:arg2="0.44879895"
       inkscape:flatsided="false"
       inkscape:rounded="-0.2"
       inkscape:randomized="0"
       d="m 87.857143,65 c 0,-6.78304 -34.864037,17.569558 -31.920986,11.45825 2.943051,-6.111308 5.640795,36.33009 10.943989,32.10093 5.303195,-4.22915 -35.473805,-16.303358 -28.860829,-17.812727 6.612975,-1.509368 -24.887031,27.061587 -18.274056,28.570957 6.612976,1.50937 -9.371074,-37.899514 -4.067879,-33.670358 5.303194,4.229157 -36.674414,-2.584837 -33.731363,3.526471 C -15.11093,95.284831 5.7342854,58.21696 5.7342854,65 c 0,6.78304 -20.8452154,-30.284831 -23.7882664,-24.173523 -2.943051,6.111308 39.034557,-0.702686 33.731363,3.526471 -5.303195,4.229156 10.680855,-35.1797298 4.067879,-33.670361 -6.612975,1.509368 24.887031,30.080328 18.274056,28.57096 C 31.406341,37.744178 72.183341,25.669973 66.880146,21.440817 61.576952,17.21166 58.879208,59.653058 55.936157,53.54175 52.993106,47.430442 87.857143,71.78304 87.857143,65 z"
       transform="matrix(0.15487801,0,0,0.15487801,221.03455,1020.8665)" />
    <path
       sodipodi:type="star"
       style="fill:#ffe5a7;fill-opacity:1;stroke:#e6c96d;stroke-width:2;stroke-miterlimit:4;stroke-opacity:1;stroke-dasharray:none"
       id="path3004-3-4"
       sodipodi:sides="7"
       sodipodi:cx="32.142857"
       sodipodi:cy="65"
       sodipodi:r1="55.714287"
       sodipodi:r2="26.408571"
       sodipodi:arg1="0"
       sodipodi:arg2="0.44879895"
       inkscape:flatsided="false"
       inkscape:rounded="-0.2"
       inkscape:randomized="0"
       d="m 87.857143,65 c 0,-6.78304 -34.864037,17.569558 -31.920986,11.45825 2.943051,-6.111308 5.640795,36.33009 10.943989,32.10093 5.303195,-4.22915 -35.473805,-16.303358 -28.860829,-17.812727 6.612975,-1.509368 -24.887031,27.061587 -18.274056,28.570957 6.612976,1.50937 -9.371074,-37.899514 -4.067879,-33.670358 5.303194,4.229157 -36.674414,-2.584837 -33.731363,3.526471 C -15.11093,95.284831 5.7342854,58.21696 5.7342854,65 c 0,6.78304 -20.8452154,-30.284831 -23.7882664,-24.173523 -2.943051,6.111308 39.034557,-0.702686 33.731363,3.526471 -5.303195,4.229156 10.680855,-35.1797298 4.067879,-33.670361 -6.612975,1.509368 24.887031,30.080328 18.274056,28.57096 C 31.406341,37.744178 72.183341,25.669973 66.880146,21.440817 61.576952,17.21166 58.879208,59.653058 55.936157,53.54175 52.993106,47.430442 87.857143,71.78304 87.857143,65 z"
       transform="matrix(0.15487801,0,0,0.15487801,57.237987,929.08086)" />
    <path
       sodipodi:type="star"
       style="fill:#ffe5a7;fill-opacity:1;stroke:#e6c96d;stroke-width:2;stroke-miterlimit:4;stroke-opacity:1;stroke-dasharray:none"
       id="path3004-05-3-1"
       sodipodi:sides="7"
       sodipodi:cx="32.142857"
       sodipodi:cy="65"
       sodipodi:r1="55.714287"
       sodipodi:r2="26.408571"
       sodipodi:arg1="0"
       sodipodi:arg2="0.44879895"
       inkscape:flatsided="false"
       inkscape:rounded="-0.2"
       inkscape:randomized="0"
       d="m 87.857143,65 c 0,-6.78304 -34.864037,17.569558 -31.920986,11.45825 2.943051,-6.111308 5.640795,36.33009 10.943989,32.10093 5.303195,-4.22915 -35.473805,-16.303358 -28.860829,-17.812727 6.612975,-1.509368 -24.887031,27.061587 -18.274056,28.570957 6.612976,1.50937 -9.371074,-37.899514 -4.067879,-33.670358 5.303194,4.229157 -36.674414,-2.584837 -33.731363,3.526471 C -15.11093,95.284831 5.7342854,58.21696 5.7342854,65 c 0,6.78304 -20.8452154,-30.284831 -23.7882664,-24.173523 -2.943051,6.111308 39.034557,-0.702686 33.731363,3.526471 -5.303195,4.229156 10.680855,-35.1797298 4.067879,-33.670361 -6.612975,1.509368 24.887031,30.080328 18.274056,28.57096 C 31.406341,37.744178 72.183341,25.669973 66.880146,21.440817 61.576952,17.21166 58.879208,59.653058 55.936157,53.54175 52.993106,47.430442 87.857143,71.78304 87.857143,65 z"
       transform="matrix(0.15487801,0,0,0.15487801,290.32026,928.72366)" />
    <path
       sodipodi:type="star"
       style="fill:#ffe5a7;fill-opacity:1;stroke:#e6c96d;stroke-width:2;stroke-miterlimit:4;stroke-opacity:1;stroke-dasharray:none"
       id="path3004-7-1-3"
       sodipodi:sides="7"
       sodipodi:cx="32.142857"
       sodipodi:cy="65"
       sodipodi:r1="55.714287"
       sodipodi:r2="26.408571"
       sodipodi:arg1="0"
       sodipodi:arg2="0.44879895"
       inkscape:flatsided="false"
       inkscape:rounded="-0.2"
       inkscape:randomized="0"
       d="m 87.857143,65 c 0,-6.78304 -34.864037,17.569558 -31.920986,11.45825 2.943051,-6.111308 5.640795,36.33009 10.943989,32.10093 5.303195,-4.22915 -35.473805,-16.303358 -28.860829,-17.812727 6.612975,-1.509368 -24.887031,27.061587 -18.274056,28.570957 6.612976,1.50937 -9.371074,-37.899514 -4.067879,-33.670358 5.303194,4.229157 -36.674414,-2.584837 -33.731363,3.526471 C -15.11093,95.284831 5.7342854,58.21696 5.7342854,65 c 0,6.78304 -20.8452154,-30.284831 -23.7882664,-24.173523 -2.943051,6.111308 39.034557,-0.702686 33.731363,3.526471 -5.303195,4.229156 10.680855,-35.1797298 4.067879,-33.670361 -6.612975,1.509368 24.887031,30.080328 18.274056,28.57096 C 31.406341,37.744178 72.183341,25.669973 66.880146,21.440817 61.576952,17.21166 58.879208,59.653058 55.936157,53.54175 52.993106,47.430442 87.857143,71.78304 87.857143,65 z"
       transform="matrix(0.15487801,0,0,0.15487801,136.74884,929.43796)" />
    <path
       sodipodi:type="star"
       style="fill:#ffe5a7;fill-opacity:1;stroke:#e6c96d;stroke-width:2;stroke-miterlimit:4;stroke-opacity:1;stroke-dasharray:none"
       id="path3004-13-6-3"
       sodipodi:sides="7"
       sodipodi:cx="32.142857"
       sodipodi:cy="65"
       sodipodi:r1="55.714287"
       sodipodi:r2="26.408571"
       sodipodi:arg1="0"
       sodipodi:arg2="0.44879895"
       inkscape:flatsided="false"
       inkscape:rounded="-0.2"
       inkscape:randomized="0"
       d="m 87.857143,65 c 0,-6.78304 -34.864037,17.569558 -31.920986,11.45825 2.943051,-6.111308 5.640795,36.33009 10.943989,32.10093 5.303195,-4.22915 -35.473805,-16.303358 -28.860829,-17.812727 6.612975,-1.509368 -24.887031,27.061587 -18.274056,28.570957 6.612976,1.50937 -9.371074,-37.899514 -4.067879,-33.670358 5.303194,4.229157 -36.674414,-2.584837 -33.731363,3.526471 C -15.11093,95.284831 5.7342854,58.21696 5.7342854,65 c 0,6.78304 -20.8452154,-30.284831 -23.7882664,-24.173523 -2.943051,6.111308 39.034557,-0.702686 33.731363,3.526471 -5.303195,4.229156 10.680855,-35.1797298 4.067879,-33.670361 -6.612975,1.509368 24.887031,30.080328 18.274056,28.57096 C 31.406341,37.744178 72.183341,25.669973 66.880146,21.440817 61.576952,17.21166 58.879208,59.653058 55.936157,53.54175 52.993106,47.430442 87.857143,71.78304 87.857143,65 z"
       transform="matrix(0.15487801,0,0,0.15487801,213.17741,928.72366)" />
  </g>
</svg>
