<?xml version="1.0" encoding="UTF-8" standalone="no"?>
<svg
   xmlns:dc="http://purl.org/dc/elements/1.1/"
   xmlns:cc="http://creativecommons.org/ns#"
   xmlns:rdf="http://www.w3.org/1999/02/22-rdf-syntax-ns#"
   xmlns:svg="http://www.w3.org/2000/svg"
   xmlns="http://www.w3.org/2000/svg"
   xmlns:sodipodi="http://sodipodi.sourceforge.net/DTD/sodipodi-0.dtd"
   xmlns:inkscape="http://www.inkscape.org/namespaces/inkscape"
   viewBox="-0.2 -1 379 334"
   id="svg2"
   version="1.1"
   inkscape:version="0.48.4 r9939"
   width="100%"
   height="100%"
   sodipodi:docname="octocat.svg">
  <metadata
     id="metadata24">
    <rdf:RDF>
      <cc:Work
         rdf:about="">
        <dc:format>image/svg+xml</dc:format>
        <dc:type
           rdf:resource="http://purl.org/dc/dcmitype/StillImage" />
        <dc:title></dc:title>
      </cc:Work>
    </rdf:RDF>
  </metadata>
  <defs
     id="defs22" />
  <sodipodi:namedview
     pagecolor="#ffffff"
     bordercolor="#666666"
     borderopacity="1"
     objecttolerance="10"
     gridtolerance="10"
     guidetolerance="10"
     inkscape:pageopacity="0"
     inkscape:pageshadow="2"
     inkscape:window-width="1440"
     inkscape:window-height="823"
     id="namedview20"
     showgrid="false"
     inkscape:zoom="1.4131737"
     inkscape:cx="224.61504"
     inkscape:cy="177.21433"
     inkscape:window-x="0"
     inkscape:window-y="24"
     inkscape:window-maximized="1"
     inkscape:current-layer="svg2" />
  <path
     id="cat"
     d="m 378.18,141.32 0.28,-1.389 c -31.162,-6.231 -63.141,-6.294 -82.487,-5.49 3.178,-11.451 4.134,-24.627 4.134,-39.32 0,-21.073 -7.917,-37.931 -20.77,-50.759 2.246,-7.25 5.246,-23.351 -2.996,-43.963 0,0 -14.541,-4.617 -47.431,17.396 -12.884,-3.22 -26.596,-4.81 -40.328,-4.81 -15.109,0 -30.376,1.924 -44.615,5.83 C 110.027,-4.339 95.044,0.404 95.044,0.404 85.264,24.861 91.311,42.97 93.148,47.467 81.653,59.873 74.635,75.71 74.635,95.126 c 0,14.658 1.669,27.808 5.745,39.237 -19.511,-0.71 -50.323,-0.437 -80.373,5.572 l 0.276,1.389 c 30.231,-6.046 61.237,-6.256 80.629,-5.522 0.898,2.366 1.899,4.661 3.021,6.879 -19.177,0.618 -51.922,3.062 -83.303,11.915 l 0.387,1.36 c 31.629,-8.918 64.658,-11.301 83.649,-11.882 11.458,21.358 34.048,35.152 74.236,39.484 -5.704,3.833 -12.50531,10.1839 -13.881,21.374 -1.36643,11.11476 -0.99954,19.96818 -1.097,24.751 -0.0975,4.78282 0,32.032 0,32.032 0,0 -0.943,11.33 -11.33,15.105 0,0 -6.137,4.249 0.475,6.606 0,0 28.792,2.361 28.792,-21.238 l 0,-34.929 c 0,0 -1.142,-13.852 5.663,-18.667 l 0,57.371 c 0,0 -0.47,13.688 -7.551,18.881 0,0 -4.723,8.494 5.663,6.137 0,0 19.824,-2.832 20.769,-25.961 l 0.449,-58.06 4.765,0 0.453,58.06 c 0.943,23.129 20.768,25.961 20.768,25.961 10.383,2.357 5.663,-6.137 5.663,-6.137 -7.08,-5.193 -7.551,-18.881 -7.551,-18.881 l 0,-56.876 c 6.801,5.296 5.663,18.171 5.663,18.171 l 0,34.929 c 0,23.6 28.793,21.238 28.793,21.238 6.606,-2.357 0.474,-6.606 0.474,-6.606 -10.386,-3.775 -11.33,-15.105 -11.33,-15.105 l 0,-45.786 c 0,-17.854 -7.518,-27.309 -14.87,-32.3 42.859,-4.25 63.426,-18.089 72.903,-39.591 18.773,0.516 52.557,2.803 84.873,11.919 l 0.384,-1.36 c -32.131,-9.063 -65.692,-11.408 -84.655,-11.96 0.898,-2.172 1.682,-4.431 2.378,-6.755 19.25,-0.8 51.38,-0.79 82.66,5.46 z"
     inkscape:connector-curvature="0"
     sodipodi:nodetypes="cccscccscccscccccccccszcccsccccccccccccccscccscccccccc" />
  <path
     id="face"
     fill="#F4CBB2"
     d="m258.19 94.132c9.231 8.363 14.631 18.462 14.631 29.343 0 50.804-37.872 52.181-84.585 52.181-46.721 0-84.589-7.035-84.589-52.181 0-10.809 5.324-20.845 14.441-29.174 15.208-13.881 40.946-6.531 70.147-6.531 29.07-.004 54.72-7.429 69.95 6.357z" />
  <path
     id="eyes"
     fill="#FFF"
     d="m160.1 126.06 c0 13.994-7.88 25.336-17.6 25.336-9.72 0-17.6-11.342-17.6-25.336 0-13.992 7.88-25.33 17.6-25.33 9.72.01 17.6 11.34 17.6 25.33z m94.43 0 c0 13.994-7.88 25.336-17.6 25.336-9.72 0-17.6-11.342-17.6-25.336 0-13.992 7.88-25.33 17.6-25.33 9.72.01 17.6 11.34 17.6 25.33z" />
  <g
     fill="#AD5C51"
     id="g13">
    <path
       id="pupils"
       d="m154.46 126.38 c0 9.328-5.26 16.887-11.734 16.887s-11.733-7.559-11.733-16.887c0-9.331 5.255-16.894 11.733-16.894 6.47 0 11.73 7.56 11.73 16.89z m94.42 0 c0 9.328-5.26 16.887-11.734 16.887s-11.733-7.559-11.733-16.887c0-9.331 5.255-16.894 11.733-16.894 6.47 0 11.73 7.56 11.73 16.89z" />
    <circle
       id="nose"
       cx="188.5"
       cy="148.56"
       r="4.401" />
    <path
       id="mouth"
       d="m178.23 159.69c-.26-.738.128-1.545.861-1.805.737-.26 1.546.128 1.805.861 1.134 3.198 4.167 5.346 7.551 5.346s6.417-2.147 7.551-5.346c.26-.738 1.067-1.121 1.805-.861s1.121 1.067.862 1.805c-1.529 4.324-5.639 7.229-10.218 7.229s-8.68-2.89-10.21-7.22z" />
  </g>
</svg>
